<svg id="Filled" height="512" viewBox="0 0 512 512" width="512" xmlns="http://www.w3.org/2000/svg"><path d="m40 352h64v128h-64z" fill="#eb423f"/><path d="m40 432h64v48h-64z" fill="#1261a0"/><path d="m168 136h320v352h-320z" fill="#f7cc38"/><path d="m376 296h80v192h-80z" fill="#9aa3a8"/><path d="m200 312h144v88h-144z" fill="#6ed2f0"/><path d="m272 312h72v88h-72z" fill="#6ed2f0"/><path d="m24 104h464v32h-464z" fill="#eb423f"/><path d="m128 248h40a0 0 0 0 1 0 0v64a0 0 0 0 1 0 0h-40a24 24 0 0 1 -24-24v-16a24 24 0 0 1 24-24z" fill="#1261a0"/><path d="m200 368h72v32h-72z" fill="#e9eef2"/><circle cx="136" cy="280" fill="#f7cc38" r="8"/><circle cx="328" cy="96" fill="#1261a0" r="56"/><path d="m344 102c0 13.255-7.163 18-16 18s-16-4.745-16-18 16-30 16-30 16 16.745 16 30z" fill="#f7cc38"/><path d="m488 96h-96a64 64 0 0 0 -128 0h-240a8 8 0 0 0 -8 8v32a8 8 0 0 0 8 8h136v96h-32a32.036 32.036 0 0 0 -32 32v16a32.036 32.036 0 0 0 32 32h32v160h-48v-16h8a24.028 24.028 0 0 0 24-24v-48a8 8 0 0 0 -8-8h-24v-24a8 8 0 0 0 -8-8h-64a8 8 0 0 0 -8 8v120h-8a8 8 0 0 0 0 16h464a8 8 0 0 0 8-8v-384a8 8 0 0 0 -8-8zm-8 16v16h-96.61a63.614 63.614 0 0 0 6.585-16zm-152-64a48 48 0 1 1 -48 48 48.054 48.054 0 0 1 48-48zm-296 64h234.025a63.614 63.614 0 0 0 6.585 16h-240.61zm96 192a16.019 16.019 0 0 1 -16-16v-16a16.019 16.019 0 0 1 16-16h32v48zm0 96v40a8.009 8.009 0 0 1 -8 8h-8v-48zm-32-32v64h-48v-64zm-48 80h48v32h-48zm400 32h-64v-176h64zm16 0v-184a8 8 0 0 0 -8-8h-80a8 8 0 0 0 -8 8v184h-192v-336h109.736a63.82 63.82 0 0 0 84.528 0h109.736v336z"/><path d="m344 304h-144a8 8 0 0 0 -8 8v88a8 8 0 0 0 8 8h144a8 8 0 0 0 8-8v-88a8 8 0 0 0 -8-8zm-80 16v40h-56v-40zm-56 56h56v16h-56zm128 16h-56v-72h56z"/><circle cx="136" cy="280" r="8"/><circle cx="408" cy="384" r="8"/><path d="m328 128c14.8 0 24-9.963 24-26 0-16-16.352-33.575-18.216-35.526a8 8 0 0 0 -11.568 0c-1.864 1.951-18.216 19.526-18.216 35.526 0 16.037 9.2 26 24 26zm-.013-43.452c4.018 5.522 8.013 12.473 8.013 17.452 0 5.06-.618 10-8 10-4.048 0-8-.772-8-10 0-4.9 3.848-11.778 7.987-17.452z"/></svg>